<svg xmlns="http://www.w3.org/2000/svg" width="215" height="140" viewBox="0 0 215 140">
  <g id="copy-list" transform="translate(16291 6061)">
    <rect id="Rectangle_736" data-name="Rectangle 736" width="215" height="140" transform="translate(-16291 -6061)" fill="none"/>
    <g id="copy-list-2" data-name="copy-list" transform="translate(-16358 -6574)">
      <g id="undraw_my_files_swob" transform="translate(89 491.742)">
        <path id="Path_622" data-name="Path 622" d="M493.738,319.769H468.58a2.515,2.515,0,0,0,0,5.029h25.158a2.515,2.515,0,1,0,0-5.029Z" transform="translate(-394.097 -265.733)" fill="#fff"/>
        <path id="Path_623" data-name="Path 623" d="M507.686,363.449H468.8a2.745,2.745,0,0,0,0,5.49h38.881a2.745,2.745,0,0,0,0-5.49Z" transform="translate(-394.093 -297.065)" fill="#fff"/>
        <path id="Path_624" data-name="Path 624" d="M516.688,399.009a2.743,2.743,0,0,0-2.482-1.58H475.325c-.059,0-.116,0-.175.006a3.369,3.369,0,0,1,1.241,1.17l2.708,4.311h35.107a2.742,2.742,0,0,0,2.482-3.907Z" transform="translate(-400.613 -321.438)" fill="#fff"/>
        <path id="Path_625" data-name="Path 625" d="M533.514,433.784a2.745,2.745,0,0,0-2.717-2.375H498.28l.486.775,2.963,4.713H530.8a2.713,2.713,0,0,0,1.592-.512,2.741,2.741,0,0,0,1.151-2.233,2.607,2.607,0,0,0-.025-.368Z" transform="translate(-417.204 -345.812)" fill="#fff"/>
        <path id="Path_628" data-name="Path 628" d="M585.062,391.8l-10.619-4.145-7.579-2.957-4.048-1.58L552.271,379l-3.427-1.337A2.745,2.745,0,0,0,545.387,379c-.034.071-.068.144-.1.22a2.743,2.743,0,0,0,1.558,3.554l.876.342,14.056,5.487,12.663,4.942,8.623,3.367a2.745,2.745,0,1,0,2-5.114Z" transform="translate(-450.789 -307.123)" fill="#fff"/>
        <path id="Path_629" data-name="Path 629" d="M565.58,420.666l-.681-.266-6.663-2.6-6.087-2.375-10.556-4.119-5.106-1.993a2.744,2.744,0,1,0-1.993,5.114l2.556,1L549.8,420.4l1.312.512.136.054h15.1Z" transform="translate(-441.925 -329.827)" fill="#fff"/>
        <path id="Path_630" data-name="Path 630" d="M530.929,443.612l-1.312-.512-5.482-2.14a2.741,2.741,0,0,0-3.709,2.14,2.6,2.6,0,0,0-.031.512.31.31,0,0,0,0,.054h10.669Z" transform="translate(-433.066 -352.527)" fill="#fff"/>
        <path id="Path_644" data-name="Path 644" d="M413.5,652.282a.283.283,0,0,1-.282.283H211.782a.283.283,0,0,1,0-.565H413.218A.283.283,0,0,1,413.5,652.282Z" transform="translate(-227.5 -503.741)" fill="#3f3d56"/>
        <g id="Group_483" data-name="Group 483" transform="translate(285.711 126.99)">
          <path id="Path_817" data-name="Path 817" d="M818.634,577.785a10.829,10.829,0,0,1-3.885-9.335,8.754,8.754,0,0,1,6.508-7.432,7.368,7.368,0,0,1,8.391,4.663c.574-6.467,1.235-13.2,4.674-18.711a19.816,19.816,0,0,1,14.349-9.193,17.78,17.78,0,0,1,15.641,6.385,16.136,16.136,0,0,1,1.984,16.613c-1.88,3.9-5.345,6.8-8.974,9.166a57.92,57.92,0,0,1-39.614,8.666Z" transform="translate(-969.186 -557.825)" fill="#f2f2f2"/>
          <path id="Path_818" data-name="Path 818" d="M908.1,545.591a95.569,95.569,0,0,0-28.081,37.971c-.268.656.8.942,1.063.293a94.509,94.509,0,0,1,27.8-37.485c.55-.448-.234-1.224-.779-.779Z" transform="translate(-1018.75 -563.733)" fill="#fff"/>
          <path id="Path_819" data-name="Path 819" d="M232.462,528.016a14.873,14.873,0,0,0,5.336-12.822,12.024,12.024,0,0,0-8.939-10.208c-4.716-1.017-10.092,1.8-11.525,6.4-.788-8.882-1.7-18.136-6.419-25.7a27.218,27.218,0,0,0-19.708-12.626,24.421,24.421,0,0,0-21.483,8.77A22.163,22.163,0,0,0,167,504.654c2.583,5.358,7.341,9.345,12.326,12.589a79.553,79.553,0,0,0,54.409,11.9" transform="translate(-467 -508.673)" fill="#f2f2f2"/>
          <path id="Path_820" data-name="Path 820" d="M213.382,483.8a130.161,130.161,0,0,1,18.139,18.012,130.542,130.542,0,0,1,20.431,34.141c.368.9-1.1,1.294-1.46.4a129.806,129.806,0,0,0-38.18-51.485c-.756-.615.321-1.681,1.07-1.07Z" transform="translate(-502.72 -516.787)" fill="#fff"/>
        </g>
        <g id="undraw_add_document_0hek" transform="translate(69.938 65.346)">
          <g id="Rectangle_626" data-name="Rectangle 626" transform="translate(0.063 -0.088)" fill="#ccc" stroke="#000" stroke-width="0.5">
            <rect width="68" height="83" rx="4" stroke="none"/>
            <rect x="0.25" y="0.25" width="67.5" height="82.5" rx="3.75" fill="none"/>
          </g>
          <rect id="Rectangle_621" data-name="Rectangle 621" width="45" height="7" rx="3.5" transform="translate(11.063 26.912)" fill="#fff"/>
          <rect id="Rectangle_622" data-name="Rectangle 622" width="45" height="7" rx="3.5" transform="translate(11.063 37.912)" fill="#fff"/>
          <rect id="Rectangle_623" data-name="Rectangle 623" width="45" height="6" rx="3" transform="translate(11.063 50.912)" fill="#fff"/>
          <rect id="Rectangle_624" data-name="Rectangle 624" width="45" height="6" rx="3" transform="translate(11.063 62.912)" fill="#fff"/>
          <rect id="Rectangle_625" data-name="Rectangle 625" width="28" height="6" rx="3" transform="translate(28.063 13.912)" fill="#fff"/>
        </g>
        <g id="undraw_add_document_0hek-2" data-name="undraw_add_document_0hek" transform="translate(35.188 43.258)">
          <g id="Rectangle_626-2" data-name="Rectangle 626" transform="translate(-0.187)" fill="#6c63ff" stroke="#000" stroke-width="0.5">
            <rect width="68" height="83" rx="4" stroke="none"/>
            <rect x="0.25" y="0.25" width="67.5" height="82.5" rx="3.75" fill="none"/>
          </g>
          <rect id="Rectangle_621-2" data-name="Rectangle 621" width="45" height="6" rx="3" transform="translate(10.813 27)" fill="#fff"/>
          <rect id="Rectangle_622-2" data-name="Rectangle 622" width="45" height="7" rx="3.5" transform="translate(10.813 38)" fill="#fff"/>
          <rect id="Rectangle_623-2" data-name="Rectangle 623" width="45" height="6" rx="3" transform="translate(10.813 51)" fill="#fff"/>
          <rect id="Rectangle_624-2" data-name="Rectangle 624" width="45" height="6" rx="3" transform="translate(10.813 63)" fill="#fff"/>
          <rect id="Rectangle_625-2" data-name="Rectangle 625" width="27" height="6" rx="3" transform="translate(28.813 14)" fill="#fff"/>
        </g>
      </g>
      <path id="Path_838" data-name="Path 838" d="M39.2,7.4S26.006-9.221-.283,3.174" transform="translate(195.626 519.227) rotate(31)" fill="none" stroke="#707070" stroke-width="1"/>
      <path id="Path_839" data-name="Path 839" d="M6.869,0C6.053,2.238-2.428,12.343.683,9.627S10.8,7.319,10.8,7.319" transform="matrix(0.719, 0.695, -0.695, 0.719, 194.469, 514.16)" fill="none" stroke="#707070" stroke-width="1"/>
      <g id="Ellipse_75" data-name="Ellipse 75" transform="translate(204 548)" fill="#6c63ff" stroke="#707070" stroke-width="0.5">
        <circle cx="9.5" cy="9.5" r="9.5" stroke="none"/>
        <circle cx="9.5" cy="9.5" r="9.25" fill="none"/>
      </g>
      <text id="_10" data-name="10" transform="translate(206 546)" fill="#fff" font-size="14" font-family="IRANSansWebFaNum, 'IRANSansWeb(FaNum)'"><tspan x="2.94" y="15">10</tspan></text>
      <g id="Ellipse_76" data-name="Ellipse 76" transform="translate(169 525)" fill="#fff" stroke="#000" stroke-width="0.5">
        <circle cx="9.5" cy="9.5" r="9.5" stroke="none"/>
        <circle cx="9.5" cy="9.5" r="9.25" fill="none"/>
      </g>
      <text id="_11" data-name="11" transform="translate(169 524)" fill="#414457" font-size="14" font-family="IRANSansWebFaNum, 'IRANSansWeb(FaNum)'"><tspan x="5.137" y="15">11</tspan></text>
    </g>
  </g>
</svg>
