<svg xmlns="http://www.w3.org/2000/svg" width="215" height="140" viewBox="0 0 215 140">
  <g id="online-list" transform="translate(17019 6060)">
    <rect id="Rectangle_732" data-name="Rectangle 732" width="215" height="140" transform="translate(-17019 -6060)" fill="none"/>
    <g id="online-list-2" data-name="online-list" transform="translate(-16996 -6081.258)">
      <path id="Path_622" data-name="Path 622" d="M493.738,319.769H468.58a2.515,2.515,0,0,0,0,5.029h25.158a2.515,2.515,0,1,0,0-5.029Z" transform="translate(-394.097 -265.733)" fill="#fff"/>
      <path id="Path_623" data-name="Path 623" d="M507.686,363.449H468.8a2.745,2.745,0,0,0,0,5.49h38.881a2.745,2.745,0,0,0,0-5.49Z" transform="translate(-394.093 -297.065)" fill="#fff"/>
      <path id="Path_624" data-name="Path 624" d="M516.688,399.009a2.743,2.743,0,0,0-2.482-1.58H475.325c-.059,0-.116,0-.175.006a3.369,3.369,0,0,1,1.241,1.17l2.708,4.311h35.107a2.742,2.742,0,0,0,2.482-3.907Z" transform="translate(-400.613 -321.438)" fill="#fff"/>
      <path id="Path_625" data-name="Path 625" d="M533.514,433.784a2.745,2.745,0,0,0-2.717-2.375H498.28l.486.775,2.963,4.713H530.8a2.713,2.713,0,0,0,1.592-.512,2.741,2.741,0,0,0,1.151-2.233,2.607,2.607,0,0,0-.025-.368Z" transform="translate(-417.204 -345.812)" fill="#fff"/>
      <path id="Path_618" data-name="Path 618" d="M593.427,344.127a20,20,0,0,0,7.2,12.834c3.931,3,8.967,4.071,13.828,4.988q8.746,1.653,17.54,3.021,1.247.2,2.5.384h34.148c.035-.046.071-.094.105-.142.056-.081.111-.161.165-.242.031-.046.061-.094.092-.142H647.577a2.3,2.3,0,0,1-2.294-2.292V333.948c-.138-.434-.267-.869-.384-1.311a34.56,34.56,0,0,1-1.061-6.278c-.115-1.478-.15-2.956-.125-4.435a98.37,98.37,0,0,1,1.18-12.172c.042-.3.086-.6.129-.894.407-2.806.777-5.86-.637-8.318-1.618-2.814-5.209-3.986-8.443-3.7-5.817.52-10.717,4.975-13.264,10.232s-3.115,11.232-3.347,17.066a53.66,53.66,0,0,0,.322,9.429q-2.188-5-4.38-10.007a13.807,13.807,0,0,0-3.042-4.917c-3.017-2.723-8.007-2.175-11.23.305s-4.986,6.4-6.161,10.293A33.657,33.657,0,0,0,593.427,344.127Z" transform="translate(-600.672 -216.597)" fill="#f2f2f2"/>
      <path id="Path_619" data-name="Path 619" d="M762.6,401.1a24.737,24.737,0,0,0-3.054,12.3,29.765,29.765,0,0,0,2.751,12.27,30.824,30.824,0,0,0,6.615,9.27,28.085,28.085,0,0,0,9.506,6.073,24.843,24.843,0,0,0,12.9,1.226q.9-.155,1.792-.376c.36-.089.513.466.153.555a25.484,25.484,0,0,1-13.673-.393,28.171,28.171,0,0,1-10.015-5.7,31.264,31.264,0,0,1-7.183-9.157,30.61,30.61,0,0,1-3.373-12.257,26.054,26.054,0,0,1,2.353-12.694q.341-.716.732-1.405a.288.288,0,0,1,.5.291Z" transform="translate(-756.972 -300.536)" fill="#fff"/>
      <path id="Path_620" data-name="Path 620" d="M719.185,294.8a62.442,62.442,0,0,0-5.431,13.623,65.8,65.8,0,0,0-1.119,29.088,62.2,62.2,0,0,0,4.374,14.008c2,4.443,4.879,9.123,9.8,10.679a10.258,10.258,0,0,0,1.7.38c.365.05.21.605-.153.555-5.087-.7-8.622-4.924-10.839-9.232a59.109,59.109,0,0,1-5.013-14.185,66.316,66.316,0,0,1,.227-29.58,63.418,63.418,0,0,1,5.092-13.972q.422-.834.869-1.655c.177-.326.674-.035.5.291Z" transform="translate(-683.004 -214.632)" fill="#fff"/>
      <path id="Path_628" data-name="Path 628" d="M585.062,391.8l-10.619-4.145-7.579-2.957-4.048-1.58L552.271,379l-3.427-1.337A2.745,2.745,0,0,0,545.387,379c-.034.071-.068.144-.1.22a2.743,2.743,0,0,0,1.558,3.554l.876.342,14.056,5.487,12.663,4.942,8.623,3.367a2.745,2.745,0,1,0,2-5.114Z" transform="translate(-450.789 -307.123)" fill="#fff"/>
      <path id="Path_629" data-name="Path 629" d="M565.58,420.666l-.681-.266-6.663-2.6-6.087-2.375-10.556-4.119-5.106-1.993a2.744,2.744,0,1,0-1.993,5.114l2.556,1L549.8,420.4l1.312.512.136.054h15.1Z" transform="translate(-441.925 -329.827)" fill="#fff"/>
      <path id="Path_630" data-name="Path 630" d="M530.929,443.612l-1.312-.512-5.482-2.14a2.741,2.741,0,0,0-3.709,2.14,2.6,2.6,0,0,0-.031.512.31.31,0,0,0,0,.054h10.669Z" transform="translate(-433.066 -352.527)" fill="#fff"/>
      <path id="Path_644" data-name="Path 644" d="M413.92,652.282a.284.284,0,0,1-.283.283H211.783a.283.283,0,1,1,0-.565H413.637A.284.284,0,0,1,413.92,652.282Z" transform="translate(-227.5 -503.741)" fill="#3f3d56"/>
      <g id="undraw_add_document_0hek" transform="translate(11 37.258)">
        <path id="Path_762" data-name="Path 762" d="M594.265,414.9" transform="translate(-529.15 -361.807)" fill="#fff"/>
        <g id="Rectangle_626" data-name="Rectangle 626" transform="translate(32 10)" fill="#ccc" stroke="#707070" stroke-width="0.5">
          <rect width="84" height="101" rx="4" stroke="none"/>
          <rect x="0.25" y="0.25" width="83.5" height="100.5" rx="3.75" fill="none"/>
        </g>
        <ellipse id="Ellipse_67" data-name="Ellipse 67" cx="15.772" cy="15.773" rx="15.772" ry="15.773" transform="translate(103 -6)" fill="#6c63ff" stroke="#000" stroke-width="0.5"/>
        <rect id="Rectangle_621" data-name="Rectangle 621" width="55" height="8" rx="4" transform="translate(46 43)" fill="#fff"/>
        <path id="Path_775" data-name="Path 775" d="M828.456,166.625a1.041,1.041,0,1,0,0,2.082h5.531v5.531a1.041,1.041,0,1,0,2.082,0v-5.531H841.6a1.041,1.041,0,1,0,0-2.082h-5.531v-5.531a1.041,1.041,0,1,0-2.082,0v5.531Z" transform="translate(-716.255 -157.893)" fill="#fff"/>
        <rect id="Rectangle_622" data-name="Rectangle 622" width="55" height="8" rx="4" transform="translate(46 57)" fill="#fff"/>
        <rect id="Rectangle_623" data-name="Rectangle 623" width="55" height="8" rx="4" transform="translate(46 72)" fill="#fff"/>
        <rect id="Rectangle_624" data-name="Rectangle 624" width="55" height="8" rx="4" transform="translate(46 87)" fill="#fff"/>
        <rect id="Rectangle_625" data-name="Rectangle 625" width="34" height="8" rx="4" transform="translate(67 26)" fill="#fff"/>
      </g>
      <path id="Path_791" data-name="Path 791" d="M909.677,654.1c4.194-4.772,23.946-28.262,9.907-32.134-10.544-2.909-11.719,13.093-11.365,23.831-1.688-7.235-4.965-15.686-10.722-11.957-8.3,5.374,7.25,17.267,11.31,20.186.067.594.111.924.111.924s.167-.182.464-.516c.232.162.361.25.361.25S909.722,654.476,909.677,654.1Z" transform="translate(-757.098 -507.142)" fill="#f2f2f2"/>
    </g>
  </g>
</svg>
