<svg xmlns="http://www.w3.org/2000/svg" width="215" height="140" viewBox="0 0 215 140">
  <g id="dashboard" transform="translate(16539 6061)">
    <rect id="Rectangle_735" data-name="Rectangle 735" width="215" height="140" transform="translate(-16539 -6061)" fill="none"/>
    <g id="dashboard-2" data-name="dashboard" transform="translate(-16506 -6055)">
      <path id="Path_721" data-name="Path 721" d="M388.136,165.1a109.284,109.284,0,0,0,1.03,14.042c.023.163.047.327.07.49l44-.246c.129-.162.256-.327.38-.493.411-.55.8-1.116,1.149-1.7,1.7-2.82,2.476-6.121,1.7-8.4l-.014-.035a4,4,0,0,0-.78-1.355c-1.777-2-5.369-1.667-8.629-.052,2.924-3.2,5.252-7.24,5.429-10.845.173-3.516-1.665-6.028-3.66-8.163-.065-.071-.131-.139-.2-.208-.032-.035-.065-.069-.1-.1-1.556-1.627-3.37-3.231-6-3.037-2.88.213-6.072,2.625-8.311,5.436a47,47,0,0,0-5.234,9.114,36.783,36.783,0,0,1-5.566,8.964c3.281-4.151,5.927-8.873,6.9-13.466s.117-9-2.807-11.167a6.84,6.84,0,0,0-3-1.209c-.126-.021-.254-.038-.384-.053a12.007,12.007,0,0,0-8.69,2.866,20.005,20.005,0,0,0-6.173,9.586A32.692,32.692,0,0,0,388.136,165.1Z" transform="translate(-346.301 -142.519)" fill="#f2f2f2"/>
      <path id="Path_722" data-name="Path 722" d="M390.881,286.295l.841,0q.4-.25.805-.5c.167-.105.336-.207.5-.31q4.186-2.557,8.424-4.9t8.511-4.483a.353.353,0,0,0,.2-.4.1.1,0,0,0-.014-.029c-.04-.075-.129-.106-.258-.042-.35.175-.7.351-1.051.53q-4.289,2.17-8.54,4.556t-8.449,4.981l-.177.109Z" transform="translate(-320.26 -249.34)" fill="#fff"/>
      <path id="Path_723" data-name="Path 723" d="M428.469,202.264l.52,0,.35-.493,8.269-11.6q6.769-9.494,13.534-18.987a.335.335,0,0,0,.059-.115c.039-.14-.064-.222-.2-.208a.4.4,0,0,0-.275.175l-7.588,10.644-13.466,18.89-.856,1.2C428.7,201.936,428.585,202.1,428.469,202.264Z" transform="translate(-368.695 -165.249)" fill="#fff"/>
      <path id="Path_724" data-name="Path 724" d="M551.832,176.378c.027.877.085,1.74.16,2.594l.044.49.546,0c-.017-.163-.033-.327-.048-.49-.115-1.235-.2-2.484-.208-3.767a52.547,52.547,0,0,1,1.034-10.592,65.956,65.956,0,0,1,3.2-11,75.573,75.573,0,0,1,5.242-10.887.291.291,0,0,0,.048-.193c-.023-.156-.23-.2-.384-.053a.448.448,0,0,0-.078.1q-.378.649-.742,1.3a75.523,75.523,0,0,0-5.017,10.925,65.639,65.639,0,0,0-2.987,11.02,51.84,51.84,0,0,0-.814,10.557Z" transform="translate(-503.647 -142.383)" fill="#fff"/>
      <path id="Path_725" data-name="Path 725" d="M297.188,328.857H177.577a1.72,1.72,0,0,0-1.718,1.718v81.052a1.72,1.72,0,0,0,1.718,1.718H297.188a1.717,1.717,0,0,0,1.307-.6.4.4,0,0,0,.037-.047,1.606,1.606,0,0,0,.246-.416,1.676,1.676,0,0,0,.13-.652V330.575A1.72,1.72,0,0,0,297.188,328.857Zm1.23,82.77a1.217,1.217,0,0,1-.2.674,1.27,1.27,0,0,1-.465.418,1.218,1.218,0,0,1-.562.136H177.577a1.229,1.229,0,0,1-1.228-1.228V330.575a1.229,1.229,0,0,1,1.228-1.228H297.188a1.23,1.23,0,0,1,1.23,1.228Z" transform="translate(-175.858 -292.112)" fill="#3f3d56"/>
      <rect id="Rectangle_602" data-name="Rectangle 602" width="122.559" height="0.491" transform="translate(0.245 43.632)" fill="#3f3d56"/>
      <circle id="Ellipse_62" data-name="Ellipse 62" cx="1.474" cy="1.474" r="1.474" transform="translate(2.947 38.956)" fill="#3f3d56"/>
      <circle id="Ellipse_63" data-name="Ellipse 63" cx="1.474" cy="1.474" r="1.474" transform="translate(7.183 38.956)" fill="#3f3d56"/>
      <circle id="Ellipse_64" data-name="Ellipse 64" cx="1.474" cy="1.474" r="1.474" transform="translate(11.42 38.956)" fill="#3f3d56"/>
      <path id="Path_726" data-name="Path 726" d="M383.219,400.632H321.739a2.562,2.562,0,1,1,0-5.123h61.481a2.562,2.562,0,1,1,0,5.123ZM321.739,395.9a2.168,2.168,0,0,0,0,4.335h61.481a2.168,2.168,0,0,0,0-4.335Z" transform="translate(-290.935 -345.63)" fill="#3f3d56"/>
      <path id="Path_750" data-name="Path 750" d="M248.079,501.862H224.433a3.354,3.354,0,0,1-3.35-3.35V487.477a3.354,3.354,0,0,1,3.35-3.35h23.646a3.354,3.354,0,0,1,3.35,3.35v11.035A3.354,3.354,0,0,1,248.079,501.862Z" transform="translate(-171.172 -420.785)" fill="none" stroke="#000" stroke-width="0.5"/>
      <path id="Path_728" data-name="Path 728" d="M438.079,501.862H414.433a3.354,3.354,0,0,1-3.35-3.35V487.477a3.354,3.354,0,0,1,3.35-3.35h23.646a3.354,3.354,0,0,1,3.35,3.35v11.035A3.354,3.354,0,0,1,438.079,501.862Z" transform="translate(-364.731 -416.785)" fill="#6c63ff"/>
      <path id="Path_729" data-name="Path 729" d="M628.079,501.862H604.433a3.354,3.354,0,0,1-3.35-3.35V487.477a3.354,3.354,0,0,1,3.35-3.35h23.646a3.354,3.354,0,0,1,3.35,3.35v11.035A3.354,3.354,0,0,1,628.079,501.862Z" transform="translate(-517.291 -416.785)" fill="#ccc" stroke="#000" stroke-width="0.5"/>
      <path id="Path_730" data-name="Path 730" d="M248.079,619.862H224.433a3.354,3.354,0,0,1-3.35-3.35V605.477a3.354,3.354,0,0,1,3.35-3.35h23.646a3.354,3.354,0,0,1,3.35,3.35v11.035A3.354,3.354,0,0,1,248.079,619.862Z" transform="translate(-212.171 -511.533)" fill="#ccc" stroke="#000" stroke-width="0.5"/>
      <path id="Path_731" data-name="Path 731" d="M438.079,619.862H414.433a3.354,3.354,0,0,1-3.35-3.35V605.477a3.354,3.354,0,0,1,3.35-3.35h23.646a3.354,3.354,0,0,1,3.35,3.35v11.035A3.354,3.354,0,0,1,438.079,619.862Z" transform="translate(-364.731 -511.533)" fill="#ccc" stroke="#000" stroke-width="0.5"/>
      <path id="Path_732" data-name="Path 732" d="M628.079,619.862H604.433a3.354,3.354,0,0,1-3.35-3.35V605.477a3.354,3.354,0,0,1,3.35-3.35h23.646a3.354,3.354,0,0,1,3.35,3.35v11.035A3.354,3.354,0,0,1,628.079,619.862Z" transform="translate(-517.291 -511.533)" fill="#ccc" stroke="#000" stroke-width="0.5"/>
      <path id="Path_836" data-name="Path 836" d="M818.634,577.785a10.829,10.829,0,0,1-3.885-9.335,8.754,8.754,0,0,1,6.508-7.432,7.368,7.368,0,0,1,8.391,4.663c.574-6.467,1.235-13.2,4.674-18.711a19.816,19.816,0,0,1,14.349-9.193,17.78,17.78,0,0,1,15.641,6.385,16.136,16.136,0,0,1,1.984,16.613c-1.88,3.9-5.345,6.8-8.974,9.166a57.92,57.92,0,0,1-39.614,8.666Z" transform="translate(-699.475 -458.093)" fill="#f2f2f2"/>
      <path id="Path_837" data-name="Path 837" d="M908.1,545.591a95.569,95.569,0,0,0-28.081,37.971c-.268.656.8.942,1.063.293a94.509,94.509,0,0,1,27.8-37.485c.55-.448-.234-1.224-.779-.779Z" transform="translate(-747.039 -464.001)" fill="#fff"/>
      <path id="Path_746" data-name="Path 746" d="M994.266,756.011H793.015c-.483,0-.875-.088-.875-.2s.392-.2.875-.2H994.266c.483,0,.875.088.875.2S994.749,756.011,994.266,756.011Z" transform="translate(-819.14 -634.777)" fill="#3f3d56"/>
    </g>
  </g>
</svg>
