<svg xmlns="http://www.w3.org/2000/svg" width="215" height="140" viewBox="0 0 215 140">
  <g id="sent-lists" transform="translate(17267 6060)">
    <rect id="Rectangle_730" data-name="Rectangle 730" width="215" height="140" transform="translate(-17267 -6060)" fill="none"/>
    <g id="sent-lists-2" data-name="sent-lists" transform="translate(-17261.096 -6049.667)">
      <path id="Path_867" data-name="Path 867" d="M283.113,512.353H219.74V498.4a1.963,1.963,0,0,1,.919-1.668l29.713-18.789a1.982,1.982,0,0,1,2.109,0l29.713,18.789a1.963,1.963,0,0,1,.919,1.668Z" transform="translate(-219.74 -404.68)" fill="#fff" stroke="#000" stroke-width="0.5"/>
      <path id="Path_868" data-name="Path 868" d="M439.142,301.824H330v-.633H438.556V254h.587Z" transform="translate(-266.18 -183)" fill="#3f3d56"/>
      <path id="Path_869" data-name="Path 869" d="M94.587,88.3H94V44H213.118v.587H94.587Z" transform="translate(-66.421 -31.09)" fill="#3f3d56"/>
      <path id="Path_870" data-name="Path 870" d="M292.583,521.963H249.406a1.975,1.975,0,0,1-1.973-1.973V491.9a1.975,1.975,0,0,1,1.973-1.973h43.177a1.975,1.975,0,0,1,1.973,1.973v28.088a1.975,1.975,0,0,1-1.973,1.973Z" transform="translate(-239.308 -413.361)" fill="#ccc" stroke="#000" stroke-width="0.5"/>
      <path id="Path_903" data-name="Path 903" d="M861.393,246.351H843.587a1.781,1.781,0,1,1,0-3.561h17.807a1.781,1.781,0,1,1,0,3.561Z" transform="translate(-815.797 -160.219)" fill="#fff"/>
      <path id="Path_904" data-name="Path 904" d="M871.268,268.639h-27.52a1.943,1.943,0,1,1,0-3.885h27.52a1.943,1.943,0,1,1,0,3.885Z" transform="translate(-825.777 -175.442)" fill="#fff"/>
      <path id="Path_905" data-name="Path 905" d="M871.268,285.722h-27.52a1.943,1.943,0,1,1,0-3.885h27.52a1.943,1.943,0,1,1,0,3.885Z" transform="translate(-825.777 -185.726)" fill="#fff"/>
      <path id="Path_906" data-name="Path 906" d="M871.268,285.722h-27.52a1.943,1.943,0,1,1,0-3.885h27.52a1.943,1.943,0,1,1,0,3.885Z" transform="translate(-825.777 -178.726)" fill="#fff"/>
      <path id="Path_875" data-name="Path 875" d="M281.14,578.749H221.714a1.975,1.975,0,0,1-1.973-1.973V551.241a1.975,1.975,0,0,1,1.973-1.973l.045.009,26.146,11.03a9.114,9.114,0,0,0,7.044,0l26.168-11.04h.023a1.975,1.975,0,0,1,1.973,1.973v25.535A1.975,1.975,0,0,1,281.14,578.749Z" transform="translate(-219.741 -455.292)" fill="#fff" stroke="#000" stroke-width="0.5"/>
      <g id="Group_485" data-name="Group 485" transform="translate(-20 -5)">
        <path id="Path_876" data-name="Path 876" d="M868.293,273.641H832.355a2.755,2.755,0,0,1-2.752-2.752V231.713a2.755,2.755,0,0,1,2.752-2.752h35.938a2.755,2.755,0,0,1,2.752,2.752v39.175A2.755,2.755,0,0,1,868.293,273.641Z" transform="translate(-666.434 -227.894)" fill="#6c63ff" stroke="#000" stroke-width="0.5"/>
        <path id="Path_877" data-name="Path 877" d="M861.393,246.351H843.587a1.781,1.781,0,1,1,0-3.561h17.807a1.781,1.781,0,1,1,0,3.561Z" transform="translate(-669.797 -236.219)" fill="#fff"/>
        <path id="Path_878" data-name="Path 878" d="M871.268,268.639h-27.52a1.943,1.943,0,1,1,0-3.885h27.52a1.943,1.943,0,1,1,0,3.885Z" transform="translate(-673.777 -249.442)" fill="#fff"/>
        <path id="Path_879" data-name="Path 879" d="M871.268,285.722h-27.52a1.943,1.943,0,1,1,0-3.885h27.52a1.943,1.943,0,1,1,0,3.885Z" transform="translate(-673.777 -259.726)" fill="#fff"/>
        <path id="Path_881" data-name="Path 881" d="M881.754,289.5l-33.478-13.067a2.755,2.755,0,0,1-1.563-3.564l14.244-36.494a2.755,2.755,0,0,1,3.564-1.563L898,247.88a2.755,2.755,0,0,1,1.563,3.564l-14.244,36.494A2.755,2.755,0,0,1,881.754,289.5Z" transform="translate(-676.619 -231.303)" fill="#6c63ff" stroke="#707070" stroke-width="0.5"/>
        <path id="Path_882" data-name="Path 882" d="M907.428,261.136l-16.588-6.475a1.781,1.781,0,0,1,1.295-3.318l16.588,6.475a1.781,1.781,0,0,1-1.3,3.318Z" transform="translate(-693.461 -237.315)" fill="#fff"/>
        <path id="Path_883" data-name="Path 883" d="M908.417,285.561l-25.636-10.006a1.943,1.943,0,1,1,1.413-3.619l25.636,10.006a1.943,1.943,0,0,1-1.413,3.619Z" transform="translate(-697.701 -253.685)" fill="#fff"/>
        <path id="Path_884" data-name="Path 884" d="M902.206,301.475,876.57,291.469a1.943,1.943,0,1,1,1.413-3.619l25.636,10.006a1.943,1.943,0,1,1-1.413,3.619Z" transform="translate(-693.961 -263.265)" fill="#fff"/>
        <path id="Path_885" data-name="Path 885" d="M895.994,317.39l-25.636-10.006a1.943,1.943,0,0,1,1.413-3.619l25.636,10.006a1.943,1.943,0,1,1-1.413,3.619Z" transform="translate(-690.223 -272.845)" fill="#fff"/>
        <path id="Path_886" data-name="Path 886" d="M872.665,291.626H833.934l-6.158-9.8a2.59,2.59,0,0,0-2.193-1.212H816.33a2.59,2.59,0,0,0-2.59,2.59v46.3a2.59,2.59,0,0,0,2.59,2.59h56.335a2.59,2.59,0,0,0,2.59-2.59v-35.29a2.59,2.59,0,0,0-2.59-2.59Z" transform="translate(-656.883 -258.991)" fill="#fff" stroke="#000" stroke-width="0.5"/>
        <g id="Ellipse_78" data-name="Ellipse 78" transform="translate(174.096 39.667)" fill="none" stroke="#000" stroke-width="0.5">
          <ellipse cx="13.5" cy="13" rx="13.5" ry="13" stroke="none"/>
          <ellipse cx="13.5" cy="13" rx="13.25" ry="12.75" fill="none"/>
        </g>
        <path id="Path_897" data-name="Path 897" d="M562.785,460.779a1.558,1.558,0,0,1-.937-.311l-.017-.013-3.529-2.7a1.568,1.568,0,0,1,1.907-2.489l2.286,1.753,5.4-7.044a1.568,1.568,0,0,1,2.2-.29l-.034.046.034-.045a1.569,1.569,0,0,1,.29,2.2l-6.353,8.286A1.569,1.569,0,0,1,562.785,460.779Z" transform="translate(-376.33 -402.611)" fill="#6c63ff"/>
      </g>
      <path id="Path_899" data-name="Path 899" d="M663.205,220.353c-.182.15-.364.293-.551.434h-46q-.514-.211-1.023-.434A54.165,54.165,0,0,1,602.22,212a54.942,54.942,0,0,1-6.938-6.817,29.111,29.111,0,0,1-5.863-10.221c-1.067-3.81-.748-8.176,1.635-11.335a10.146,10.146,0,0,1,2.678-2.452c.171-.108.345-.212.523-.31a13.342,13.342,0,0,1,9.681-1.164c4.607,1.19,8.436,4.514,11.168,8.413s4.506,8.371,6.253,12.8a27.724,27.724,0,0,1,14.4-18.571,25.685,25.685,0,0,1,23.362.343,23.479,23.479,0,0,1,5.973,4.7c.171.184.338.373.5.564A23.546,23.546,0,0,1,671.4,202.39,22.631,22.631,0,0,1,663.205,220.353Z" transform="translate(-508.531 -102.712)" fill="#f2f2f2"/>
      <path id="Path_900" data-name="Path 900" d="M636.159,226.27h-.651c-.009-.145-.019-.288-.032-.434a48.593,48.593,0,0,0-1.422-8.4,51.78,51.78,0,0,0-8.306-17.445,49.566,49.566,0,0,0-14.2-13.109.308.308,0,0,1-.152-.223.324.324,0,0,1,.479-.338.5.5,0,0,1,.043.028,49.1,49.1,0,0,1,8.7,6.747,52.23,52.23,0,0,1,11.212,16.073,50.647,50.647,0,0,1,4.3,16.667C636.137,225.982,636.148,226.127,636.159,226.27Z" transform="translate(-526.193 -108.195)" fill="#fff"/>
      <path id="Path_901" data-name="Path 901" d="M774.413,217.013a.04.04,0,0,1-.015,0c-.475.087-.952.178-1.425.275a64.359,64.359,0,0,0-11.346,3.445,66.956,66.956,0,0,0-10.516,5.421,68.041,68.041,0,0,0-9.421,7.172,66.678,66.678,0,0,0-8.02,8.7,64.5,64.5,0,0,0-4.9,7.385c-.082.143-.163.288-.243.434h-.744c.078-.145.158-.291.241-.434a65.03,65.03,0,0,1,6.067-8.961,67.4,67.4,0,0,1,8.306-8.619,68.922,68.922,0,0,1,9.622-7,67.614,67.614,0,0,1,10.737-5.238,64.42,64.42,0,0,1,11.155-3.148l.317-.059C774.632,216.317,774.805,216.928,774.413,217.013Z" transform="translate(-617.349 -131.773)" fill="#fff"/>
      <path id="Path_902" data-name="Path 902" d="M764.1,322.224a42.98,42.98,0,0,0-13.626.307,43.872,43.872,0,0,0-12.83,4.486,42.326,42.326,0,0,0-6.4,4.23c-.327.261.136.719.46.46a42.021,42.021,0,0,1,11.662-6.556,43.285,43.285,0,0,1,13.023-2.642,41.428,41.428,0,0,1,7.54.342.337.337,0,0,0,.4-.227.327.327,0,0,0-.227-.4Z" transform="translate(-619.976 -214.35)" fill="#fff"/>
      <path id="Path_907" data-name="Path 907" d="M350.5,652.282c0,.156-.087.282-.194.283H211.694c-.107,0-.194-.127-.194-.283s.087-.283.194-.283H350.306C350.413,652,350.5,652.126,350.5,652.282Z" transform="translate(-147.404 -533.63)" fill="#3f3d56"/>
    </g>
  </g>
</svg>
