<svg xmlns="http://www.w3.org/2000/svg" width="215" height="140" viewBox="0 0 215 140">
  <g id="uploaded-list" transform="translate(16781 6061)">
    <rect id="Rectangle_733" data-name="Rectangle 733" width="215" height="140" transform="translate(-16781 -6061)" fill="none"/>
    <g id="uploaded-list-2" data-name="uploaded-list" transform="translate(-16777 -6081.258)">
      <path id="Path_621" data-name="Path 621" d="M496.452,292.259H445.677a3.892,3.892,0,0,0-3.887,3.887v25.441H449.6a3.358,3.358,0,0,1,2.858,1.58l2.708,4.311,2.59,4.119.486.775,2.963,4.713.034.054h39.1V296.146a3.892,3.892,0,0,0-3.887-3.887Z" transform="translate(-376.79 -246.301)" fill="#ccc" stroke="#000" stroke-width="0.5"/>
      <path id="Path_622" data-name="Path 622" d="M493.738,319.769H468.58a2.515,2.515,0,0,0,0,5.029h25.158a2.515,2.515,0,1,0,0-5.029Z" transform="translate(-380.097 -265.733)" fill="#fff"/>
      <path id="Path_623" data-name="Path 623" d="M507.686,363.449H468.8a2.745,2.745,0,0,0,0,5.49h38.881a2.745,2.745,0,0,0,0-5.49Z" transform="translate(-394.093 -297.065)" fill="#fff"/>
      <path id="Path_624" data-name="Path 624" d="M516.688,399.009a2.743,2.743,0,0,0-2.482-1.58H475.325c-.059,0-.116,0-.175.006a3.369,3.369,0,0,1,1.241,1.17l2.708,4.311h35.107a2.742,2.742,0,0,0,2.482-3.907Z" transform="translate(-400.613 -321.438)" fill="#fff"/>
      <path id="Path_625" data-name="Path 625" d="M533.514,433.784a2.745,2.745,0,0,0-2.717-2.375H498.28l.486.775,2.963,4.713H530.8a2.713,2.713,0,0,0,1.592-.512,2.741,2.741,0,0,0,1.151-2.233,2.607,2.607,0,0,0-.025-.368Z" transform="translate(-417.204 -345.812)" fill="#fff"/>
      <path id="Path_618" data-name="Path 618" d="M695.721,361.063c-1.061,6.742-4.347,13.286-9.77,17.427-5.337,4.078-12.175,5.527-18.777,6.773q-11.876,2.244-23.817,4.1-1.693.27-3.388.521H593.6c-.047-.063-.1-.128-.143-.193-.076-.109-.151-.219-.224-.328-.042-.063-.083-.128-.125-.193h29.084a3.117,3.117,0,0,0,3.114-3.112V347.241c.188-.589.362-1.181.521-1.78a46.927,46.927,0,0,0,1.441-8.524c.156-2.007.2-4.013.169-6.023a133.576,133.576,0,0,0-1.6-16.527c-.057-.4-.117-.81-.175-1.214-.553-3.81-1.055-7.956.865-11.295,2.2-3.82,7.073-5.413,11.464-5.022,7.9.706,14.552,6.755,18.01,13.893s4.23,15.251,4.545,23.173a72.861,72.861,0,0,1-.438,12.8q2.971-6.794,5.947-13.588c1.058-2.416,2.171-4.91,4.131-6.677,4.1-3.7,10.872-2.953,15.248.414s6.771,8.694,8.365,13.976C695.775,347.384,696.784,354.321,695.721,361.063Z" transform="translate(-504.672 -242.129)" fill="#f2f2f2"/>
      <path id="Path_619" data-name="Path 619" d="M800.88,401.25a33.588,33.588,0,0,1,4.147,16.7,40.415,40.415,0,0,1-3.735,16.66,41.855,41.855,0,0,1-8.982,12.587A38.134,38.134,0,0,1,779.4,455.44a33.732,33.732,0,0,1-17.516,1.664q-1.226-.211-2.434-.511c-.489-.12-.7.633-.208.754a34.6,34.6,0,0,0,18.566-.534,38.251,38.251,0,0,0,13.6-7.736,42.453,42.453,0,0,0,9.753-12.434A41.564,41.564,0,0,0,805.744,420a35.377,35.377,0,0,0-3.195-17.236q-.463-.972-.994-1.908a.391.391,0,0,0-.675.395Z" transform="translate(-629.305 -317.934)" fill="#fff"/>
      <path id="Path_620" data-name="Path 620" d="M723.879,294.954a84.785,84.785,0,0,1,7.375,18.5,89.343,89.343,0,0,1,1.52,39.5,84.462,84.462,0,0,1-5.939,19.02c-2.715,6.032-6.625,12.388-13.3,14.5a13.926,13.926,0,0,1-2.309.516c-.5.068-.285.822.208.754,6.907-.948,11.707-6.686,14.717-12.536a80.258,80.258,0,0,0,6.807-19.261,90.044,90.044,0,0,0-.308-40.164,86.108,86.108,0,0,0-6.914-18.971q-.573-1.133-1.18-2.248c-.24-.442-.916-.048-.675.395Z" transform="translate(-593.797 -239.331)" fill="#fff"/>
      <path id="Path_626" data-name="Path 626" d="M565.784,322.248l-3.958-1.546L542.093,313l-23.609-9.213A3.894,3.894,0,0,0,513.449,306l-.826,2.117-1.965,5.029-2.855,7.319-2.143,5.49-1.606,4.116-2.143,5.487-1.609,4.119-.045.119-.257.656,2.963,4.713.034.054h54.877a3.369,3.369,0,0,1,2.626,1.255l.232-.588,2.833-7.254,4.427-11.345A3.9,3.9,0,0,0,565.784,322.248Z" transform="translate(-418.438 -254.08)" fill="#6c63ff" stroke="#000" stroke-width="0.5"/>
      <path id="Path_627" data-name="Path 627" d="M588.2,345.861l-2.115-.826-21.322-8.32a2.516,2.516,0,1,0-1.829,4.687l7.042,2.748,8.71,3.4,7.4,2.889.285.11a2.516,2.516,0,0,0,1.829-4.687Z" transform="translate(-448.433 -271.766)" fill="#fff"/>
      <path id="Path_628" data-name="Path 628" d="M585.062,391.8l-10.619-4.145-7.579-2.957-4.048-1.58L552.271,379l-3.427-1.337A2.745,2.745,0,0,0,545.387,379c-.034.071-.068.144-.1.22a2.743,2.743,0,0,0,1.558,3.554l.876.342,14.056,5.487,12.663,4.942,8.623,3.367a2.745,2.745,0,1,0,2-5.114Z" transform="translate(-450.789 -307.123)" fill="#fff"/>
      <path id="Path_1000" data-name="Path 1000" d="M86.813,95.227,68.281,96.852Z" fill="#fff"/>
      <path id="Path_629" data-name="Path 629" d="M565.58,420.666l-.681-.266-6.663-2.6-6.087-2.375-10.556-4.119-5.106-1.993a2.744,2.744,0,1,0-1.993,5.114l2.556,1L549.8,420.4l1.312.512.136.054h15.1Z" transform="translate(-441.925 -329.827)" fill="#fff"/>
      <path id="Path_630" data-name="Path 630" d="M530.929,443.612l-1.312-.512-5.482-2.14a2.741,2.741,0,0,0-3.709,2.14,2.6,2.6,0,0,0-.031.512.31.31,0,0,0,0,.054h10.669Z" transform="translate(-433.066 -352.527)" fill="#fff"/>
      <path id="Path_1001" data-name="Path 1001" d="M75.7,76.446,86.094,93.821l-3.187,1.094L72.219,94.6,69.813,90.2s.5-5.844.531-6,.188-4.875.188-5a8.661,8.661,0,0,1,2.156-1.062A31.66,31.66,0,0,0,75.7,76.446Z" fill="#fff"/>
      <rect id="Rectangle_731" data-name="Rectangle 731" width="87.5" height="56.4" rx="4" transform="translate(55.85 91.408)" fill="#fff"/>
      <rect id="Rectangle_734" data-name="Rectangle 734" width="21.5" height="72.4" rx="4" transform="translate(55.85 75.408)" fill="#fff"/>
      <path id="Path_631" data-name="Path 631" d="M462.522,410.063l-1.312-.512H440.7a2.6,2.6,0,0,0-.031.512h-2.8l.034.054h24.762Zm0,0H437.862l.034.054h24.763Zm0,0H437.862l.034.054h24.763Zm.136.054-.136-.054H437.862l.034.054Zm-49.477,56.613a3.381,3.381,0,0,1-3.376-3.376V397.943a3.381,3.381,0,0,1,3.376-3.378h5.261V394h-5.261a3.948,3.948,0,0,0-3.941,3.944v65.411a3.944,3.944,0,0,0,2.31,3.585h49.808c-.045-.068-.09-.138-.136-.209Zm82.45-55.945a3.923,3.923,0,0,0-2.858-1.233H438.209l-3.053-4.857-.074-.119-2.59-4.119-2.9-4.614A3.951,3.951,0,0,0,426.256,394H413.181a3.948,3.948,0,0,0-3.941,3.944v65.411a3.944,3.944,0,0,0,2.31,3.585,3.888,3.888,0,0,0,1.631.356h79.591a3.9,3.9,0,0,0,1.634-.356,3.944,3.944,0,0,0,2.31-3.585V413.495a3.921,3.921,0,0,0-1.086-2.711Zm.52,52.57a3.381,3.381,0,0,1-3.378,3.376H413.181a3.381,3.381,0,0,1-3.376-3.376V397.943a3.381,3.381,0,0,1,3.376-3.378h13.075a3.358,3.358,0,0,1,2.858,1.58l2.708,4.311,2.59,4.119.486.775,2.963,4.713.034.054h54.877a3.381,3.381,0,0,1,3.378,3.378Zm-33.628-53.291H437.862l.034.054h24.762Zm0,0H437.862l.034.054h24.762Zm0,0H437.862l.034.054h24.762Zm0,0-1.312-.512h-23l-3.053-4.857-.257.656,2.963,4.713.034.054h24.763Z" transform="translate(-353.337 -318.978)" fill="#3f3d56"/>
      <path id="Path_644" data-name="Path 644" d="M414.5,652.282a.284.284,0,0,1-.284.283H211.784a.283.283,0,1,1,0-.565H414.216A.284.284,0,0,1,414.5,652.282Z" transform="translate(-211.5 -504.039)" fill="#3f3d56"/>
      <path id="Path_999" data-name="Path 999" d="M76.35,77.415,85.563,93.1Z" fill="#fff"/>
      <g id="undraw_uploading_go67" transform="translate(-147.109 -75.021)">
        <rect id="Rectangle_595" data-name="Rectangle 595" width="102.156" height="24.231" rx="4" transform="translate(158.109 179.65)" fill="#fff" stroke="#3f3d56" stroke-miterlimit="10" stroke-width="0.5"/>
        <path id="Rectangle_594" data-name="Rectangle 594" d="M4,0H62.23a0,0,0,0,1,0,0V24.231a0,0,0,0,1,0,0H4a4,4,0,0,1-4-4V4A4,4,0,0,1,4,0Z" transform="translate(158.11 179.65)" fill="#6c63ff"/>
        <path id="Path_682" data-name="Path 682" d="M418.853,304.228a4.984,4.984,0,0,0-9.315-1.319,3.987,3.987,0,0,0,.432,7.952h8.652a3.335,3.335,0,0,0,3.326-3.34A3.285,3.285,0,0,0,418.853,304.228Zm-3.825,1.963v2.528H412.9v-2.528h-2.261l3.326-3.329,3.326,3.329Z" transform="translate(-204.775 -113.76)" fill="#fff"/>
      </g>
    </g>
  </g>
</svg>
