<?xml version="1.0" standalone="no"?>
<!DOCTYPE svg PUBLIC "-//W3C//DTD SVG 20010904//EN"
 "http://www.w3.org/TR/2001/REC-SVG-20010904/DTD/svg10.dtd">
<svg version="1.0" xmlns="http://www.w3.org/2000/svg"
 width="260.000000pt" height="260.000000pt" viewBox="0 0 260.000000 260.000000"
 preserveAspectRatio="xMidYMid meet">
<metadata>
Created by potrace 1.11, written by Peter Selinger 2001-2013
</metadata>
<g transform="translate(0.000000,260.000000) scale(0.100000,-0.100000)"
fill="#000000" stroke="none">
<path d="M1295 2230 c-31 -5 -78 -34 -211 -135 -94 -72 -183 -139 -199 -150
-15 -11 -32 -25 -39 -31 -6 -5 -47 -37 -91 -70 -43 -32 -87 -66 -96 -74 -24
-21 -36 -30 -101 -78 -91 -67 -88 -57 -89 -404 0 -167 0 -313 1 -326 0 -29 56
-90 184 -200 56 -47 113 -98 128 -112 15 -14 33 -30 40 -35 30 -24 143 -111
153 -118 5 -4 26 -21 45 -37 19 -16 39 -30 43 -30 4 0 31 -18 59 -41 28 -22
65 -48 82 -57 33 -17 136 -24 136 -8 0 5 3 6 7 3 9 -10 34 8 232 162 96 75
206 160 245 189 39 29 73 58 74 63 2 5 10 9 18 9 8 0 17 7 20 15 4 8 10 15 15
15 5 0 17 8 27 18 11 9 53 43 95 75 l77 58 0 347 c-1 273 -3 351 -14 365 -7 9
-17 17 -21 17 -4 0 -18 10 -30 23 -61 60 -93 86 -99 80 -3 -4 -6 -2 -6 4 0 6
-33 35 -72 66 -40 30 -84 65 -98 76 -34 28 -36 29 -120 91 -41 30 -81 61 -89
68 -8 8 -33 25 -55 39 -23 14 -43 29 -46 32 -13 16 -127 88 -145 92 -11 3 -38
2 -60 -1z m90 -242 c25 -13 98 -70 190 -147 11 -9 76 -61 145 -116 69 -54 130
-104 136 -109 6 -6 28 -24 49 -41 98 -77 168 -222 160 -334 -6 -106 -71 -209
-180 -289 -27 -20 -55 -41 -61 -47 -6 -6 -36 -28 -67 -49 -32 -22 -57 -43 -57
-48 0 -4 -6 -8 -14 -8 -8 0 -16 -3 -18 -7 -1 -5 -48 -41 -103 -82 -55 -40
-105 -79 -110 -85 -6 -6 -18 -15 -26 -21 -9 -5 -34 -22 -57 -37 -31 -21 -52
-27 -89 -26 -48 0 -74 13 -138 67 -17 14 -48 40 -69 56 -21 17 -48 39 -61 50
-29 26 -47 41 -123 99 -35 26 -74 59 -87 72 -13 13 -26 24 -29 24 -13 0 -145
124 -177 165 -17 24 -46 91 -55 132 -22 103 4 201 79 296 32 41 159 147 176
147 6 0 11 4 11 9 0 5 25 26 55 46 30 21 55 42 55 47 0 5 4 7 8 4 5 -3 19 5
33 18 13 12 67 53 119 91 95 70 110 81 133 100 49 42 118 51 172 23z"/>
<path d="M1136 1794 c-101 -35 -146 -63 -215 -133 -68 -68 -107 -114 -102
-119 1 -1 -7 -22 -19 -47 -11 -24 -23 -56 -26 -72 -3 -15 -7 -37 -11 -47 -10
-34 -6 -162 7 -215 24 -100 77 -190 157 -269 41 -41 77 -71 80 -68 4 3 14 -1
23 -9 20 -18 128 -58 139 -51 4 3 7 86 6 185 0 175 -1 180 -24 205 -15 16 -32
24 -45 21 -12 -2 -29 -4 -38 -4 -26 -1 -44 -49 -43 -108 1 -29 -1 -53 -4 -53
-10 1 -51 38 -51 46 0 4 -7 15 -15 24 -8 9 -25 45 -39 80 -19 53 -23 81 -22
150 2 47 8 95 15 108 6 12 9 27 6 32 -3 6 -2 10 4 10 6 0 13 11 17 25 3 14 10
25 15 25 5 0 9 4 9 10 0 10 31 49 65 82 11 11 53 36 93 55 62 31 86 37 155 41
59 3 94 -1 127 -12 25 -9 50 -18 55 -19 44 -10 168 -118 180 -158 4 -10 11
-19 16 -19 5 0 9 -8 9 -18 0 -10 5 -23 12 -30 7 -7 8 -12 4 -12 -5 0 -3 -7 4
-15 15 -18 16 -195 1 -223 -6 -11 -8 -22 -5 -24 6 -6 -62 -124 -76 -133 -11
-7 -11 -6 -14 48 -3 57 -35 92 -81 91 -67 -3 -70 -12 -71 -215 -1 -165 1 -181
18 -190 10 -6 18 -6 18 0 0 5 10 11 23 15 76 19 210 130 260 216 91 159 104
308 41 476 -27 71 -50 108 -106 169 -21 22 -38 43 -38 48 0 4 -7 7 -15 7 -8 0
-15 4 -15 9 0 14 -168 94 -200 95 -17 1 -30 3 -30 6 0 3 -43 6 -97 6 -72 0
-111 -6 -157 -22z"/>
<path d="M1236 1493 c-14 -14 -26 -28 -27 -32 0 -3 -2 -15 -5 -26 -10 -49 42
-105 96 -105 28 0 80 37 80 56 0 8 4 14 8 14 4 0 6 15 4 34 -5 45 -40 77 -90
82 -32 3 -44 -1 -66 -23z"/>
<path d="M1049 1391 c-22 -22 -26 -34 -22 -65 2 -21 10 -45 18 -53 8 -8 15
-11 15 -7 0 5 4 4 10 -2 17 -17 74 -4 93 23 27 35 27 67 3 98 -31 39 -81 41
-117 6z"/>
<path d="M1461 1395 c-75 -64 6 -172 95 -125 13 7 27 23 31 34 27 82 -60 146
-126 91z"/>
<path d="M1276 1282 c-11 -3 -29 -15 -40 -29 -18 -23 -19 -41 -19 -242 1 -119
2 -228 2 -242 l1 -27 85 0 c85 1 85 1 86 27 6 212 1 443 -10 469 -17 40 -51
54 -105 44z"/>
</g>
</svg>
