<?xml version="1.0" standalone="no"?>
<!DOCTYPE svg PUBLIC "-//W3C//DTD SVG 20010904//EN"
 "http://www.w3.org/TR/2001/REC-SVG-20010904/DTD/svg10.dtd">
<svg version="1.0" xmlns="http://www.w3.org/2000/svg"
 width="396.000000pt" height="396.000000pt" viewBox="0 0 396.000000 396.000000"
 preserveAspectRatio="xMidYMid meet">
<metadata>
Created by potrace 1.11, written by Peter Selinger 2001-2013
</metadata>
<g transform="translate(0.000000,396.000000) scale(0.100000,-0.100000)"
fill="#000000" stroke="none">
<path d="M1920 3940 c0 -5 -6 -7 -13 -4 -7 2 -31 -2 -54 -10 -23 -8 -44 -12
-47 -9 -3 4 -6 1 -6 -5 0 -7 -8 -12 -19 -12 -10 0 -30 -9 -44 -20 -14 -11 -29
-20 -34 -20 -5 0 -23 -13 -41 -29 -17 -17 -32 -28 -32 -25 0 3 -6 -1 -14 -8
-30 -29 -66 -58 -66 -52 0 3 -6 -1 -13 -8 -8 -7 -28 -24 -47 -38 -18 -14 -41
-33 -51 -42 -11 -10 -20 -17 -22 -15 -3 2 -22 -13 -58 -45 -10 -10 -21 -18
-24 -18 -6 0 -144 -104 -166 -125 -9 -8 -21 -15 -27 -15 -5 0 -12 -3 -14 -7
-1 -5 -55 -46 -118 -93 -63 -47 -120 -89 -126 -95 -6 -6 -36 -28 -67 -49 -32
-22 -57 -43 -57 -48 0 -4 -6 -8 -12 -8 -7 0 -27 -13 -44 -28 -18 -15 -42 -34
-54 -42 -12 -8 -39 -30 -59 -47 -20 -18 -38 -33 -41 -33 -3 0 -30 -19 -61 -42
-31 -24 -73 -56 -95 -73 -104 -79 -176 -194 -191 -307 -10 -69 -10 -1151 -1
-1200 12 -60 44 -136 75 -176 42 -56 125 -133 156 -145 9 -3 17 -11 17 -17 0
-6 4 -8 10 -5 5 3 10 3 10 -2 0 -4 17 -19 38 -33 20 -14 39 -27 42 -30 3 -3
21 -17 40 -30 19 -13 38 -29 42 -35 4 -5 8 -6 8 -1 0 4 9 -2 20 -15 10 -13 19
-21 20 -16 0 4 9 -1 19 -10 30 -28 44 -38 89 -68 23 -15 42 -32 42 -38 0 -6 3
-8 6 -4 3 3 15 -2 26 -11 11 -9 32 -27 46 -39 15 -13 30 -23 34 -23 4 0 19
-12 33 -27 14 -15 25 -24 25 -20 0 7 6 2 64 -51 14 -12 29 -22 33 -22 5 0 20
-11 35 -25 15 -14 30 -25 33 -25 4 0 13 -6 20 -13 22 -19 37 -31 75 -57 19
-13 37 -27 40 -30 3 -3 22 -16 42 -30 21 -14 38 -28 38 -32 0 -5 7 -8 15 -8 8
0 15 -4 15 -8 0 -4 13 -16 30 -25 16 -10 35 -23 42 -30 7 -7 41 -32 76 -56 34
-24 62 -48 62 -53 0 -5 4 -7 9 -3 6 3 14 -3 20 -12 6 -10 11 -14 11 -9 0 5 8
0 18 -10 18 -20 112 -70 125 -66 4 1 7 -3 7 -8 0 -5 3 -9 8 -8 12 2 86 -14
105 -24 11 -6 17 -5 17 2 0 8 6 7 20 0 12 -6 35 -8 53 -5 18 3 46 8 62 9 17 2
31 5 33 6 1 1 7 4 12 5 6 1 11 3 13 4 1 2 13 4 26 7 33 6 89 33 141 68 47 32
62 43 116 90 19 15 34 25 34 22 0 -3 17 10 37 29 20 19 40 35 44 35 3 0 15 8
27 17 35 31 56 47 97 77 22 16 48 37 57 45 9 9 23 21 30 26 7 6 34 27 60 47
25 21 51 38 57 38 6 0 11 4 11 8 0 5 21 24 48 42 26 19 49 37 52 40 3 3 23 19
45 35 22 17 42 32 45 35 3 3 21 17 40 30 19 13 37 27 40 30 3 3 40 32 83 64
42 32 77 63 77 67 0 5 4 8 8 7 8 -3 56 31 88 60 8 7 14 11 14 8 0 -3 8 2 18
12 11 9 32 26 47 37 16 11 34 26 41 33 7 6 15 12 17 12 17 0 177 157 177 173
0 5 9 22 21 38 11 16 21 38 22 49 1 11 4 20 7 20 8 0 13 44 14 127 1 40 3 73
6 73 4 0 4 199 0 208 -2 3 -2 71 0 80 1 4 1 41 0 82 -5 205 -4 250 3 250 5 0
5 5 1 12 -4 7 -7 39 -7 73 1 33 2 94 3 135 1 83 -6 222 -14 259 -18 81 -103
202 -187 264 -37 27 -77 57 -148 112 -37 27 -115 87 -176 132 -60 45 -115 87
-121 91 -6 5 -36 26 -67 47 -31 21 -57 42 -57 48 0 6 -3 8 -6 4 -6 -5 -28 10
-66 46 -10 9 -18 14 -18 10 0 -5 -4 -3 -8 2 -4 6 -32 28 -62 50 -30 22 -59 45
-63 52 -4 7 -15 13 -22 13 -8 0 -15 4 -15 8 0 4 -12 15 -27 24 -16 9 -41 28
-58 42 -16 14 -36 26 -44 26 -8 0 -11 3 -8 7 4 3 -2 11 -13 17 -17 10 -259
186 -300 219 -23 18 -120 64 -155 73 -52 13 -81 17 -147 20 -44 2 -78 -1 -78
-6z m155 -420 c8 -7 15 -9 15 -6 0 7 78 -44 106 -69 7 -5 24 -19 40 -30 51
-36 169 -124 181 -134 7 -6 15 -11 17 -11 6 0 14 -7 74 -57 15 -13 33 -23 40
-23 7 0 10 -4 7 -10 -3 -5 1 -10 9 -10 8 0 20 -8 25 -17 6 -10 11 -14 11 -10
0 5 6 2 13 -5 8 -7 29 -24 47 -38 18 -14 38 -29 44 -35 6 -5 29 -22 51 -37 22
-15 54 -39 70 -53 46 -38 48 -39 85 -65 19 -14 37 -27 40 -31 3 -3 46 -34 95
-70 50 -35 92 -67 93 -71 2 -5 10 -8 17 -8 7 0 15 -3 17 -7 5 -12 85 -73 95
-73 5 0 16 -8 24 -17 9 -10 29 -27 44 -38 45 -32 135 -121 135 -134 0 -6 4
-11 8 -11 4 0 23 -25 42 -56 39 -65 82 -154 73 -154 -3 0 -1 -6 4 -12 42 -53
51 -334 14 -430 -5 -14 -7 -29 -4 -32 4 -3 0 -6 -7 -6 -7 0 -11 -3 -7 -6 8 -8
-13 -64 -25 -64 -5 0 -7 -4 -3 -9 9 -15 -101 -170 -160 -226 -59 -56 -77 -71
-220 -179 -55 -41 -105 -79 -110 -84 -6 -4 -44 -33 -85 -62 -41 -30 -77 -57
-80 -60 -3 -3 -32 -25 -65 -49 -117 -87 -290 -224 -293 -232 -2 -5 -9 -9 -16
-9 -7 0 -23 -11 -36 -25 -13 -14 -28 -25 -33 -25 -5 0 -20 -11 -32 -24 -13
-14 -26 -22 -29 -19 -3 3 -8 -2 -12 -11 -3 -9 -10 -16 -16 -16 -5 0 -15 -6
-23 -13 -20 -19 -47 -40 -85 -67 -19 -13 -40 -31 -47 -40 -7 -8 -13 -12 -13
-7 0 4 -8 -1 -18 -10 -50 -48 -94 -76 -142 -91 -31 -9 -106 -8 -125 2 -11 6
-23 9 -27 8 -5 -1 -8 2 -8 8 0 5 -5 10 -11 10 -9 0 -72 43 -89 60 -11 11 -79
60 -83 60 -3 0 -16 9 -29 20 -56 48 -137 110 -142 110 -4 0 -19 11 -34 24 -15
13 -81 64 -147 112 -66 49 -122 91 -125 94 -3 3 -25 19 -50 35 -25 16 -47 32
-50 35 -3 4 -41 33 -85 65 -44 33 -81 63 -83 67 -2 5 -8 8 -13 8 -10 0 -24 10
-60 42 -10 10 -22 18 -25 18 -7 0 -88 63 -92 73 -2 4 -8 7 -14 7 -5 0 -15 6
-23 12 -30 29 -56 48 -65 48 -6 0 -10 5 -10 10 0 6 -4 10 -10 10 -25 0 -210
202 -210 229 0 6 -5 11 -11 11 -5 0 -7 5 -4 10 3 6 1 10 -4 10 -6 0 -11 4 -11
9 0 5 -10 30 -22 57 -12 27 -21 53 -20 58 2 4 -1 13 -7 20 -20 25 -31 212 -18
316 18 151 88 290 205 407 64 65 113 106 155 131 15 9 27 20 27 24 0 4 4 8 10
8 5 0 19 8 29 18 25 22 38 32 81 62 19 13 37 27 40 30 3 4 50 40 105 80 55 41
104 77 110 82 5 5 28 22 50 38 22 17 51 39 65 49 14 11 74 56 134 100 141 104
164 121 198 149 15 13 28 20 28 16 0 -4 6 -1 13 7 15 19 147 121 147 114 0 -3
8 3 18 13 56 53 132 99 187 113 41 10 112 4 130 -11z"/>
<path d="M1975 3142 c-2 -2 -40 -6 -85 -8 -45 -2 -86 -6 -91 -10 -9 -5 -46
-14 -84 -18 -11 -1 -30 -8 -42 -15 -13 -6 -23 -9 -23 -6 0 3 -13 -1 -30 -10
-16 -9 -30 -13 -30 -10 0 3 -10 -1 -23 -10 -13 -8 -27 -12 -30 -8 -4 3 -7 1
-7 -5 0 -7 -6 -12 -13 -12 -15 0 -171 -90 -175 -102 -2 -4 -8 -8 -14 -8 -5 0
-15 -6 -23 -12 -7 -7 -31 -28 -53 -46 -40 -32 -110 -103 -149 -149 -10 -12
-26 -31 -35 -42 -10 -12 -18 -25 -18 -30 0 -4 -9 -16 -20 -26 -11 -10 -20 -23
-20 -30 0 -7 -9 -22 -20 -35 -11 -12 -17 -27 -14 -31 3 -5 1 -9 -4 -9 -10 0
-48 -89 -44 -102 1 -5 -3 -8 -10 -8 -6 0 -9 -2 -6 -6 3 -3 -3 -27 -13 -55 -10
-27 -16 -49 -13 -49 4 0 1 -7 -6 -15 -7 -8 -10 -15 -7 -15 3 0 2 -14 -3 -30
-30 -103 -31 -315 -3 -470 2 -14 5 -32 7 -40 3 -19 36 -129 46 -155 22 -55 97
-202 110 -215 3 -3 16 -22 30 -42 14 -21 28 -38 33 -38 4 0 7 -5 7 -10 0 -6
35 -45 78 -86 101 -99 107 -104 120 -104 5 0 12 -4 14 -9 3 -9 113 -81 124
-81 4 0 15 -6 23 -14 21 -18 205 -87 240 -89 l26 -2 2 115 c7 464 4 729 -8
751 -40 76 -149 103 -251 61 -27 -11 -72 -55 -74 -73 -1 -5 -3 -10 -4 -11 -6
-6 -9 -61 -10 -168 -1 -156 -4 -162 -43 -108 -18 24 -39 51 -47 60 -8 9 -26
39 -40 65 -13 26 -27 50 -30 53 -6 5 -40 96 -45 120 -2 8 -9 38 -16 65 -14 53
-19 266 -7 325 21 108 35 150 82 242 61 120 143 220 242 294 21 16 41 31 44
34 3 3 16 11 30 19 127 72 229 107 345 117 27 3 55 6 62 9 6 2 14 1 17 -2 10
-10 65 -9 59 1 -4 5 -1 6 6 2 7 -5 31 -10 54 -12 74 -6 101 -12 163 -32 69
-23 187 -80 192 -93 2 -5 9 -9 15 -9 7 0 30 -15 51 -33 68 -55 174 -167 159
-167 -3 0 3 -8 13 -17 10 -10 20 -24 22 -32 2 -8 11 -26 21 -40 10 -14 24 -42
31 -61 7 -19 17 -39 22 -45 4 -5 8 -19 8 -31 0 -13 4 -25 9 -29 6 -3 10 -13
10 -23 0 -9 5 -37 11 -62 16 -60 20 -200 8 -280 -5 -36 -10 -73 -11 -82 -1
-10 -5 -18 -10 -18 -4 0 -6 -4 -3 -8 20 -33 -156 -358 -187 -346 -9 3 -12 46
-11 142 1 75 -3 150 -9 167 -12 35 -42 65 -78 82 -35 15 -152 11 -173 -6 -9
-7 -16 -10 -16 -6 0 17 -48 -45 -60 -77 -8 -23 -13 -151 -16 -428 -2 -217 -6
-401 -9 -407 -2 -7 -1 -12 3 -12 4 1 9 0 12 -1 20 -7 40 -7 40 1 0 6 3 8 8 6
4 -3 18 0 32 6 14 5 30 11 35 11 28 3 175 79 260 135 74 48 259 227 270 261 3
11 11 20 17 20 6 0 9 3 6 6 -3 3 5 17 18 31 13 14 22 29 19 33 -2 4 4 15 15
25 11 10 20 26 20 37 0 10 5 18 10 18 6 0 10 6 10 13 0 6 7 25 15 40 14 27 64
161 65 172 0 3 0 6 1 8 4 13 10 47 13 68 1 14 5 30 7 35 14 26 18 256 6 339
-14 97 -35 185 -60 245 -25 62 -30 75 -31 80 -3 11 -72 129 -110 185 -40 60
-226 255 -242 255 -5 0 -23 12 -39 28 -16 15 -30 25 -30 23 0 -3 -19 8 -42 22
-24 15 -47 27 -53 27 -5 0 -10 5 -10 10 0 6 -3 9 -7 8 -14 -4 -53 13 -53 23 0
5 -3 8 -7 7 -5 -1 -46 10 -93 25 -47 15 -94 28 -105 30 -11 1 -24 5 -30 8 -5
4 -20 5 -32 4 -13 -1 -23 1 -23 4 0 3 -21 6 -48 6 -26 -1 -51 1 -56 4 -11 5
-76 7 -81 3z"/>
<path d="M1906 2489 c-20 -9 -36 -15 -36 -13 0 5 -42 -44 -68 -77 -36 -48 -33
-178 5 -221 9 -10 13 -18 9 -18 -8 0 64 -65 73 -66 3 0 20 -6 36 -13 49 -21
148 -7 193 26 46 34 62 56 83 108 37 91 -6 220 -85 256 -14 7 -26 16 -26 21 0
5 -5 6 -10 3 -6 -4 -17 -2 -25 5 -19 16 -107 10 -149 -11z"/>
<path d="M2394 2259 c-2 -3 -16 -9 -32 -12 -49 -10 -125 -104 -126 -157 -1
-108 80 -207 176 -215 86 -7 176 55 199 138 13 44 13 56 6 98 -9 46 -67 126
-81 112 -3 -4 -6 -1 -6 5 0 19 -125 48 -136 31z"/>
<path d="M1550 2252 c-105 -13 -188 -113 -177 -214 5 -46 37 -107 59 -114 10
-3 18 -11 18 -17 0 -17 47 -36 100 -40 46 -4 95 9 118 30 7 7 21 18 30 25 44
32 69 138 47 202 -16 45 -60 94 -92 102 -13 4 -23 10 -23 14 0 9 -46 16 -80
12z"/>
<path d="M1987 2024 c-1 -2 -17 -4 -34 -6 -37 -3 -97 -41 -127 -81 -13 -18
-21 -45 -22 -77 -1 -27 -5 -53 -8 -58 -3 -5 -3 -12 1 -16 7 -7 10 -176 3 -176
-7 0 -4 -66 3 -77 3 -4 2 -27 -3 -51 -4 -23 -4 -44 0 -47 4 -3 4 -22 0 -44 -4
-22 -4 -45 1 -52 4 -7 5 -18 2 -25 -10 -27 -8 -461 2 -462 6 -1 26 -4 45 -8
71 -12 282 -6 320 10 13 5 15 74 15 534 0 413 -3 532 -13 550 -12 21 -90 78
-103 75 -3 -1 -22 2 -42 6 -20 5 -38 7 -40 5z"/>
</g>
</svg>
